<svg width="417" height="95" viewBox="0 0 417 95" fill="none" xmlns="http://www.w3.org/2000/svg">
<path d="M0 62.6594C8.50533 60.2244 16.9205 60.9894 25.9284 62.7359C21.985 52.2692 20.0004 42.4782 24.0984 32.1008C29.3691 33.8601 34.1759 36.1676 38.0033 40.26C34.6012 39.4185 31.1862 38.5771 27.4748 37.6465C25.4129 44.2886 25.9541 50.6884 27.6939 57.101C29.0728 62.2005 31.7403 65.9614 36.4827 68.9573C41.7921 72.3102 45.6839 77.3842 47.4108 83.6948C47.6427 84.5235 48.2484 85.2629 48.8927 86.4103C45.8643 85.7984 43.6736 84.2813 41.4828 82.7514C36.5085 79.271 32.7713 74.6815 29.73 69.5437C28.2093 66.9813 26.3665 65.3749 23.2221 65.1582C17.9256 64.7885 12.6936 64.7757 7.47438 65.8594C10.026 79.9977 21.5984 92.5042 49.2794 94.187C27.0882 98.4196 8.00274 85.8621 0 62.6594ZM45.2973 81.9865C45.4133 82.2287 45.5293 82.4582 45.6581 82.7004C45.7741 82.5857 45.903 82.4582 46.019 82.3435C45.7999 82.2032 45.5808 82.0757 45.3746 81.9355C45.5293 81.451 45.3746 81.1451 44.8463 81.0813C42.7457 76.785 38.7894 74.2735 35.31 71.2903C37.359 75.5994 40.1168 79.271 44.4081 81.5913C44.5756 81.961 44.8076 82.2415 45.2973 81.9865Z" fill="#106CA0"/>
<path d="M85.0017 94.1615C112 92.3257 122.477 82.9936 127.554 66.0506C121.098 64.6227 114.732 64.2913 108.314 66.1016C106.561 66.5988 105.93 68.0649 105.092 69.3398C101.677 74.4775 98.069 79.4367 92.824 82.9681C90.6719 84.4215 88.4425 85.6581 85.9038 86.4358C88.5971 78.812 92.6823 72.2592 99.7829 68.0266C104.268 65.3622 105.672 60.9639 107.064 56.4636C108.958 50.3442 108.829 44.1993 107.438 37.7867C103.636 38.2584 100.105 39.2146 96.4194 40.2599C98.6489 37.0345 105.827 33.1079 110.724 32.394C114.152 42.5802 112.966 52.5115 108.443 63.0801C117.451 60.9256 125.827 60.0969 134.449 62.4937C131.098 73.1389 125.067 81.91 115.711 88.5393C106.02 95.3726 95.2854 95.4619 85.0017 94.1615ZM89.5765 81.7188C94.2158 79.4622 97.154 75.7014 99.1772 71.1246C95.3885 74.1205 91.3807 76.9125 89.5765 81.7188Z" fill="#106CA0"/>
<path d="M41.5861 36.0524C43.4676 38.6404 43.2485 41.5598 43.3387 44.4155C43.5062 49.9995 44.6918 55.2264 48.7898 59.408C49.2409 59.867 49.795 60.2494 50.3878 60.7339C51.844 59.7012 51.625 58.4646 51.1739 57.1642C50.4909 55.2009 50.1172 53.0592 49.0862 51.2998C47.8878 49.2345 48.5192 47.9469 49.8723 46.6593C56.406 57.4957 60.9293 68.6763 56.3802 81.1318C55.0915 77.3455 52.0889 74.12 49.0089 71.1113C40.7871 63.1179 39.7433 53.2249 40.7613 42.7072C40.9546 40.4762 41.7536 38.3344 41.5861 36.0524Z" fill="#3FC4CE"/>
<path d="M92.9275 35.6577C93.9842 42.6058 95.2987 49.3753 93.8683 56.2469C92.5409 62.6595 89.0228 67.81 84.564 72.4505C81.8577 75.268 79.3448 78.2002 78.3911 81.3109C74.1771 69.0848 78.1076 57.6747 85.1696 46.7491C87.3475 51.5171 82.4505 55.7879 83.8165 61.2061C92.4249 54.2198 91.0203 44.3523 92.9275 35.6577Z" fill="#3FC4CE"/>
<path d="M63.2881 79.1582C81.8758 62.8395 71.7371 50.9313 52.2276 39.0231C43.7786 32.1134 45.9294 26.0855 45.4684 26.9679C44.2397 41.5221 60.0311 46.0575 61.906 53.2833C64.2103 63.8684 59.4482 71.3661 63.2881 79.1582Z" fill="#106CA0"/>
<path d="M69.4333 48.8728L73.8882 54.7534C73.8882 54.7534 75.8852 48.8728 84.027 42.5512C92.1687 36.2296 90.3253 26.9679 90.3253 26.9679C90.3253 26.9679 88.4819 35.9355 82.9517 39.4639C77.4214 42.9922 69.4333 48.8728 69.4333 48.8728Z" fill="#106CA0"/>
<path d="M73.58 71.6604C72.6071 77.492 70.0775 89.4492 67.7425 90.6253C63.7489 82.2455 70.6617 77.247 73.58 71.6604Z" fill="#106CA0"/>
<path d="M72.4628 38.3556C72.4628 41.172 70.4434 43.4551 67.9524 43.4551C65.4614 43.4551 63.442 41.172 63.442 38.3556C63.442 35.5392 65.4614 33.2561 67.9524 33.2561C70.4434 33.2561 72.4628 35.5392 72.4628 38.3556Z" fill="#106CA0"/>
<path d="M57.8088 27.3739C55.529 26.9277 53.1022 25.6237 51.0627 23.5643C48.5942 21.0718 47.2556 18.0407 47.2112 15.4117C49.8673 15.5093 52.9033 16.8953 55.3719 19.3879C57.1136 21.1466 58.2928 23.1734 58.8517 25.1379C58.8495 21.9019 57.6172 18.6643 55.1472 16.1702C52.1308 13.1244 47.9559 11.8817 43.9944 12.4559C43.3328 16.3624 44.5033 20.5174 47.5199 23.5633C50.3178 26.3885 54.1124 27.6624 57.8088 27.3739Z" fill="#3FC4CE"/>
<path d="M77.799 27.4022C80.0789 26.9561 82.5058 25.6521 84.5454 23.5926C87.0139 21.1001 88.3525 18.069 88.3969 15.4399C85.7408 15.5376 82.7048 16.9236 80.2362 19.4162C78.4947 21.1747 77.3156 23.2013 76.7565 25.1656C76.7589 21.9297 77.9912 18.6922 80.4611 16.1983C83.4775 13.1524 87.6524 11.9097 91.6139 12.4839C92.2756 16.3906 91.1052 20.5457 88.0885 23.5917C85.2905 26.417 81.4957 27.6909 77.799 27.4022Z" fill="#3FC4CE"/>
<path d="M68.382 23.2251C69.7169 21.3438 70.5589 18.743 70.5939 15.8614C70.6362 12.372 69.4857 9.26618 67.6807 7.33592C65.8296 9.22277 64.6041 12.3002 64.5618 15.7895C64.5319 18.2524 65.0963 20.5243 66.0657 22.3266C63.8051 19.9864 62.4326 16.8031 62.475 13.3107C62.5268 9.04681 64.6756 5.29385 67.9398 3C71.1474 5.37073 73.2046 9.17368 73.1528 13.4376C73.1048 17.3914 71.2536 20.9059 68.382 23.2251Z" fill="#3FC4CE"/>
<path d="M174.927 49H167.348L164.433 40.467H151.024L148.109 49H140.636L153.409 14.02H162.154L174.927 49ZM152.667 35.061H162.79L157.702 19.797L152.667 35.061ZM215.785 49H208.206L205.291 40.467H191.882L188.967 49H181.494L194.267 14.02H203.012L215.785 49ZM193.525 35.061H203.648L198.56 19.797L193.525 35.061ZM233.587 43.117H252.031V49H226.273V14.02H233.587V43.117ZM293.773 49H286.194L283.279 40.467H269.87L266.955 49H259.482L272.255 14.02H281L293.773 49ZM271.513 35.061H281.636L276.548 19.797L271.513 35.061ZM327.59 14.02L315.188 35.909V49H307.874V35.909L295.472 14.02H303.263L308.881 24.514L311.531 29.973L314.234 24.514L319.852 14.02H327.59ZM363.584 49H356.005L353.09 40.467H339.681L336.766 49H329.293L342.066 14.02H350.811L363.584 49ZM341.324 35.061H351.447L346.359 19.797L341.324 35.061ZM412.127 14.02V49H405.502V30.768L405.873 20.539H405.767L396.068 49H390.079L380.433 20.539H380.327L380.698 30.768V49H374.073V14.02H384.673L390.98 33.1L393.206 40.997H393.312L395.591 33.153L401.845 14.02H412.127Z" fill="#106CA0"/>
<path d="M150.276 69.52C152.255 69.52 153.823 70.0147 154.98 71.004C156.156 71.9933 156.744 73.328 156.744 75.008C156.744 76.744 156.156 78.088 154.98 79.04C153.823 79.9733 152.255 80.44 150.276 80.44L149.996 80.608H145.712V88H142.744V69.52H150.276ZM150.052 78.116C151.265 78.116 152.161 77.8733 152.74 77.388C153.337 76.884 153.636 76.1187 153.636 75.092C153.636 74.084 153.337 73.328 152.74 72.824C152.161 72.32 151.265 72.068 150.052 72.068H145.712V78.116H150.052ZM151.816 78.732L157.836 88H154.392L149.24 79.908L151.816 78.732ZM168.557 88V69.52H181.941V72.096H171.553V77.416H179.673V79.936H171.553V85.424H182.333V88H168.557ZM208.505 69.52V88H205.481V69.52H208.505ZM196.353 69.52V88H193.357V69.52H196.353ZM206.993 77.36V79.936H194.869V77.36H206.993ZM236.318 88H233.154L231.39 83.156H223.634L221.87 88H218.79L225.762 69.52H229.346L236.318 88ZM224.474 80.72H230.55L227.526 72.096L224.474 80.72ZM246.596 88V69.52H253.876C256.097 69.52 257.721 69.968 258.748 70.864C259.774 71.76 260.288 73.0013 260.288 74.588C260.288 75.5587 260.008 76.4267 259.448 77.192C258.888 77.9387 258.066 78.4147 256.984 78.62V78.648C258.178 78.8347 259.102 79.3293 259.756 80.132C260.428 80.916 260.764 81.8307 260.764 82.876C260.764 84.4627 260.185 85.7133 259.028 86.628C257.87 87.5427 256.19 88 253.988 88H246.596ZM249.536 85.508H254.128C255.304 85.508 256.181 85.2653 256.76 84.78C257.357 84.2947 257.656 83.6133 257.656 82.736C257.656 81.8587 257.357 81.1773 256.76 80.692C256.181 80.2067 255.304 79.964 254.128 79.964H249.536V85.508ZM249.536 77.472H253.652C256.004 77.472 257.18 76.5667 257.18 74.756C257.18 72.9453 256.004 72.04 253.652 72.04H249.536V77.472ZM287.451 83.1C287.077 84.22 286.517 85.172 285.771 85.956C285.024 86.7213 284.147 87.3 283.139 87.692C282.131 88.084 281.02 88.28 279.807 88.28C278.033 88.28 276.493 87.8973 275.187 87.132C273.88 86.3667 272.872 85.2747 272.163 83.856C271.453 82.4373 271.099 80.7387 271.099 78.76C271.099 76.7813 271.453 75.0827 272.163 73.664C272.872 72.2453 273.88 71.1533 275.187 70.388C276.493 69.6227 278.024 69.24 279.779 69.24C280.992 69.24 282.084 69.408 283.055 69.744C284.044 70.08 284.884 70.584 285.575 71.256C286.265 71.928 286.797 72.768 287.171 73.776L284.343 75.036C283.969 73.9347 283.428 73.132 282.719 72.628C282.009 72.1053 281.085 71.844 279.947 71.844C278.808 71.844 277.809 72.1147 276.951 72.656C276.092 73.1973 275.42 73.9813 274.935 75.008C274.468 76.0347 274.235 77.2853 274.235 78.76C274.235 80.216 274.459 81.4667 274.907 82.512C275.355 83.5387 275.999 84.3227 276.839 84.864C277.679 85.4053 278.687 85.676 279.863 85.676C281.001 85.676 281.981 85.3867 282.803 84.808C283.643 84.2107 284.24 83.324 284.595 82.148L287.451 83.1ZM298.275 88V69.52H311.659V72.096H301.271V77.416H309.391V79.936H301.271V85.424H312.051V88H298.275ZM338.224 69.52V88H334.668L327.528 76.352L325.736 73.076H325.708L325.82 76.072V88H323.076V69.52H326.604L333.716 81.14L335.536 84.472H335.564L335.452 81.448V69.52H338.224ZM364.441 69.52V72.096H358.113V88H355.117V72.096H348.789V69.52H364.441ZM382.561 69.52C384.54 69.52 386.108 70.0147 387.265 71.004C388.441 71.9933 389.029 73.328 389.029 75.008C389.029 76.744 388.441 78.088 387.265 79.04C386.108 79.9733 384.54 80.44 382.561 80.44L382.281 80.608H377.997V88H375.029V69.52H382.561ZM382.337 78.116C383.55 78.116 384.446 77.8733 385.025 77.388C385.622 76.884 385.921 76.1187 385.921 75.092C385.921 74.084 385.622 73.328 385.025 72.824C384.446 72.32 383.55 72.068 382.337 72.068H377.997V78.116H382.337ZM384.101 78.732L390.121 88H386.677L381.525 79.908L384.101 78.732ZM400.842 88V69.52H414.226V72.096H403.838V77.416H411.958V79.936H403.838V85.424H414.618V88H400.842Z" fill="#3FC4CE"/>
</svg>
